PathFileType	4	(X/Y/Z)	 s07c0103.trc
DataRate	CameraRate	NumFrames	NumMarkers	Units	OrigDataRate	OrigDataStartFrame	OrigNumFrames
200	200	4	47	mm	200	1501	2000
Frame#	Time	racr			lacr			c7			jug			rlel			rdr			llel			ldr			s2			lic			ric			lasi			rasi			rpsi			lpsi			rgt			lgt			rth1			rth2			rth3			rth4			rlfc			rmfc			rsh1			rsh2			rsh3			rsh4			rcal			rtoe			rmt5			lth1			lth2			lth4			lth3			llfc			lmfc			lsh1			lsh2			lsh3			lsh4			llmal			lcal			ltoe			lmt5			SBIKE			LBIKE			RBIKE			
		X1	Y1	Z1	X2	Y2	Z2	X3	Y3	Z3	X4	Y4	Z4	X5	Y5	Z5	X6	Y6	Z6	X7	Y7	Z7	X8	Y8	Z8	X9	Y9	Z9	X10	Y10	Z10	X11	Y11	Z11	X12	Y12	Z12	X13	Y13	Z13	X14	Y14	Z14	X15	Y15	Z15	X16	Y16	Z16	X17	Y17	Z17	X18	Y18	Z18	X19	Y19	Z19	X20	Y20	Z20	X21	Y21	Z21	X22	Y22	Z22	X23	Y23	Z23	X24	Y24	Z24	X25	Y25	Z25	X26	Y26	Z26	X27	Y27	Z27	X28	Y28	Z28	X29	Y29	Z29	X30	Y30	Z30	X31	Y31	Z31	X32	Y32	Z32	X33	Y33	Z33	X34	Y34	Z34	X35	Y35	Z35	X36	Y36	Z36	X37	Y37	Z37	X38	Y38	Z38	X39	Y39	Z39	X40	Y40	Z40	X41	Y41	Z41	X42	Y42	Z42	X43	Y43	Z43	X44	Y44	Z44	X45	Y45	Z45	X46	Y46	Z46	X47	Y47	Z47	
1501	7.5050	522.355458	1367.762486	-99.332083	526.050629	1378.675560	-346.041483	485.123008	1416.271908	-223.465214	442.473761	1271.799804	-242.793267	518.424101	1075.866529	95.851289	715.820503	915.541062	-44.301844	523.813807	1089.647354	-545.317609	723.427317	916.893673	-413.559645	-117.116574	1201.211810	-217.829736	28.555259	1275.640056	-367.788758	76.518296	1219.756595	-86.304335	54.469471	1197.431418	-356.428360	89.434219	1174.373067	-109.271332	-80.456337	1234.204381	-166.491643	-87.100175	1259.630488	-271.200517	23.168426	1096.157033	-50.582963	-25.169776	1119.770723	-410.440931	155.494114	1007.802125	-57.162280	231.328657	965.421725	-70.788277	279.742078	895.047660	-71.416969	251.459352	989.868462	-91.016344	350.368872	784.237702	-105.456881	327.895987	765.385406	-210.354485	248.846599	685.926438	-78.630092	206.352735	608.291347	-88.674596	132.633323	562.426504	-81.983217	220.627672	595.958360	-125.319971	-32.676520	493.852963	-107.556276	116.155128	244.109240	-121.448231	44.908053	289.374965	-52.437350	68.454895	1026.097824	-413.865504	150.923746	993.959814	-413.114509	172.276344	1023.029227	-407.294270	206.969905	925.609653	-405.131006	338.241495	808.317942	-368.984443	328.074510	784.648449	-275.860250	300.537812	664.947828	-395.615661	297.458390	581.571941	-377.289089	262.665255	502.382214	-385.857342	295.294625	583.979385	-334.273031	209.704042	371.643745	-394.246946	146.421516	314.039287	-363.521215	429.744449	373.771530	-353.742903	360.964731	327.885093	-420.358868	-258.102173	967.661098	-232.060421	-75.691222	83.256922	-437.454546	-82.272456	79.444477	-39.966779	
1502	7.5100	520.091662	1371.703681	-97.829230	525.662974	1380.958133	-344.345108	483.719557	1419.435566	-222.154865	441.202970	1274.851550	-240.996257	519.545333	1078.551067	95.483649	716.101302	915.765617	-44.536481	525.330749	1092.021062	-544.479162	723.684918	916.961065	-413.406554	-116.751601	1200.867003	-220.510493	29.559195	1274.815857	-370.282051	75.292752	1221.093276	-87.490596	55.854156	1196.569991	-358.162364	89.091071	1175.886064	-110.724848	-80.875733	1234.142330	-169.002892	-86.684972	1258.938729	-274.309285	23.853893	1098.341341	-51.253538	-23.786882	1118.077928	-411.900784	158.283396	1012.546256	-56.620718	235.243835	971.994185	-71.809465	285.578620	903.265199	-70.959971	254.261852	996.947071	-91.596634	358.212665	793.643602	-105.252302	345.492755	775.008559	-205.040343	256.606109	695.275137	-78.557270	213.847987	617.886943	-88.440576	140.008520	571.851298	-81.517660	228.383049	605.059559	-124.822194	-23.566129	506.198871	-107.453895	114.760583	250.522103	-121.648750	45.545324	298.616450	-52.425687	67.937560	1022.888522	-415.372361	149.470915	988.563562	-414.321515	171.549429	1016.994270	-408.319116	203.618976	918.711585	-406.089849	331.882116	798.615090	-369.516285	321.366926	775.116595	-276.764836	295.555430	654.905399	-396.386735	293.567711	570.960935	-377.948334	252.358437	490.718010	-388.297602	291.006480	573.439427	-335.494857	208.799054	359.900411	-394.194635	145.782961	302.261278	-363.803731	429.105497	363.047449	-353.916451	360.426002	317.090693	-420.368018	-258.187808	967.547219	-231.955153	-75.680374	83.263533	-437.473255	-82.250951	79.489567	-39.983140	
1503	7.5150	517.683863	1375.826218	-96.040990	525.378406	1383.256547	-342.538151	482.298489	1422.590248	-220.850298	440.127530	1277.813461	-239.042727	520.052221	1080.665914	94.398202	716.348196	915.984195	-44.835804	526.832813	1094.400264	-543.521114	723.914338	917.031976	-413.221780	-116.264386	1200.589508	-223.242149	30.587311	1274.220818	-372.702800	73.934846	1222.661478	-88.539004	57.283519	1195.994656	-359.730426	88.611622	1177.596963	-112.010545	-81.204988	1234.320745	-171.739470	-86.127219	1258.351505	-277.355057	24.282601	1100.593609	-52.035163	-22.344675	1116.681460	-413.312526	160.301598	1017.137957	-56.130096	238.459966	978.914616	-71.962548	291.026813	911.758044	-70.797753	256.504568	1004.186544	-92.408191	365.213549	803.293143	-105.381605	348.155205	785.125895	-209.137825	264.338944	704.736750	-78.439194	221.669528	627.242918	-88.139534	147.886267	581.162136	-81.043878	236.325921	614.196065	-124.362690	-13.757029	518.150758	-107.335719	112.599432	256.204210	-122.931751	46.895818	307.861679	-52.358375	67.464321	1020.039833	-416.853956	148.092483	983.628287	-415.597634	170.878404	1011.374753	-409.277422	200.323763	912.242380	-407.046354	325.380550	788.751104	-369.655629	311.795906	766.090329	-277.779616	290.063333	645.214426	-397.523219	289.054057	561.269214	-378.519979	249.217129	480.260954	-388.747499	286.884654	563.509798	-336.232555	207.359650	348.770453	-394.515744	144.673825	291.066947	-363.900670	427.831632	352.428363	-353.935405	359.234160	306.243420	-420.291681	-258.114931	967.646112	-232.375326	-75.696800	83.264140	-437.503174	-82.255674	79.531249	-39.988815	
1504	7.5200	515.249543	1379.839061	-94.213894	525.076290	1385.589808	-340.787818	480.891512	1425.764979	-219.524629	438.900942	1280.856728	-237.146813	520.868367	1083.024498	93.586426	716.526882	916.271170	-45.204617	528.272941	1096.788467	-542.471005	724.101362	917.118483	-412.992754	-115.684415	1200.480058	-225.952902	31.621813	1273.850149	-374.972252	72.457110	1224.374693	-89.427424	58.960160	1195.714640	-361.287903	88.038647	1179.480271	-113.272506	-81.456624	1234.659949	-174.413728	-85.464860	1257.909831	-280.310620	24.209472	1103.001303	-52.950062	-20.716861	1115.547532	-414.659983	161.905637	1022.594522	-56.263977	241.007469	985.803570	-72.301409	295.445726	920.388094	-70.694853	258.267431	1011.401426	-93.209997	372.025343	813.194920	-105.816394	355.412798	794.629721	-209.199046	272.077182	714.167356	-78.300470	229.668916	636.430581	-87.760103	155.998800	590.127491	-80.568196	244.261479	623.507992	-124.053051	-3.589999	529.851200	-107.011015	112.305061	263.012430	-122.898210	48.751179	317.218610	-52.424128	67.051052	1017.429601	-418.265117	146.639715	979.098207	-416.852612	170.131492	1006.011271	-410.198921	196.996663	905.991047	-408.211044	318.558307	779.571481	-370.575652	305.789086	757.236658	-278.835427	283.965696	635.570593	-398.465943	284.361618	551.346413	-379.742762	245.303753	470.132676	-389.437453	284.043051	554.028238	-336.482046	205.434644	338.069901	-394.712197	142.862225	280.474043	-364.017930	426.269371	342.009118	-354.137411	357.528383	295.474504	-420.316203	-258.054999	967.737852	-232.781390	-75.665559	83.287165	-437.500220	-82.244586	79.631952	-40.038752	
